<svg width="19" height="20" viewBox="0 0 19 20" fill="none" xmlns="http://www.w3.org/2000/svg">
<path d="M10.2916 3.27083C10.2916 2.95589 10.1665 2.65384 9.94378 2.43114C9.72108 2.20844 9.41903 2.08333 9.10409 2.08333C8.78914 2.08333 8.4871 2.20844 8.2644 2.43114C8.0417 2.65384 7.91659 2.95589 7.91659 3.27083V8.41667H2.77075C2.45581 8.41667 2.15376 8.54178 1.93106 8.76448C1.70836 8.98718 1.58325 9.28922 1.58325 9.60417C1.58325 9.91911 1.70836 10.2212 1.93106 10.4439C2.15376 10.6666 2.45581 10.7917 2.77075 10.7917H7.91659V15.9375C7.91659 16.2524 8.0417 16.5545 8.2644 16.7772C8.4871 16.9999 8.78914 17.125 9.10409 17.125C9.41903 17.125 9.72108 16.9999 9.94378 16.7772C10.1665 16.5545 10.2916 16.2524 10.2916 15.9375V10.7917H15.4374C15.7524 10.7917 16.0544 10.6666 16.2771 10.4439C16.4998 10.2212 16.6249 9.91911 16.6249 9.60417C16.6249 9.28922 16.4998 8.98718 16.2771 8.76448C16.0544 8.54178 15.7524 8.41667 15.4374 8.41667H10.2916V3.27083Z" fill="white" fill-opacity="0.73"/>
</svg>
