<svg width="19" height="20" viewBox="0 0 19 20" fill="none" xmlns="http://www.w3.org/2000/svg">
<path d="M9.5 1.6875C7.29539 1.6875 5.18107 2.56328 3.62218 4.12217C2.06328 5.68107 1.1875 7.79539 1.1875 10C1.1875 12.2046 2.06328 14.3189 3.62218 15.8778C5.18107 17.4367 7.29539 18.3125 9.5 18.3125C11.7046 18.3125 13.8189 17.4367 15.3778 15.8778C16.9367 14.3189 17.8125 12.2046 17.8125 10C17.8125 7.79539 16.9367 5.68107 15.3778 4.12217C13.8189 2.56328 11.7046 1.6875 9.5 1.6875ZM9.5 8.99181L11.4309 7.06094C11.5646 6.92724 11.7459 6.85214 11.935 6.85214C12.124 6.85214 12.3054 6.92724 12.4391 7.06094C12.5728 7.19463 12.6479 7.37596 12.6479 7.56503C12.6479 7.7541 12.5728 7.93543 12.4391 8.06913L10.5082 10L12.4391 11.9309C12.5053 11.9971 12.5578 12.0757 12.5936 12.1622C12.6294 12.2486 12.6479 12.3413 12.6479 12.435C12.6479 12.5286 12.6294 12.6213 12.5936 12.7078C12.5578 12.7943 12.5053 12.8729 12.4391 12.9391C12.3729 13.0053 12.2943 13.0578 12.2078 13.0936C12.1213 13.1294 12.0286 13.1479 11.935 13.1479C11.8413 13.1479 11.7486 13.1294 11.6622 13.0936C11.5757 13.0578 11.4971 13.0053 11.4309 12.9391L9.5 11.0082L7.56912 12.9391C7.50293 13.0053 7.42434 13.0578 7.33784 13.0936C7.25135 13.1294 7.15865 13.1479 7.06503 13.1479C6.97141 13.1479 6.87871 13.1294 6.79222 13.0936C6.70572 13.0578 6.62714 13.0053 6.56094 12.9391C6.49474 12.8729 6.44223 12.7943 6.4064 12.7078C6.37057 12.6213 6.35213 12.5286 6.35213 12.435C6.35213 12.3413 6.37057 12.2486 6.4064 12.1622C6.44223 12.0757 6.49474 11.9971 6.56094 11.9309L8.49181 10L6.56094 8.06913C6.49474 8.00293 6.44223 7.92434 6.4064 7.83784C6.37057 7.75135 6.35213 7.65865 6.35213 7.56503C6.35213 7.47141 6.37057 7.37871 6.4064 7.29222C6.44223 7.20573 6.49474 7.12714 6.56094 7.06094C6.62714 6.99474 6.70572 6.94223 6.79222 6.9064C6.87871 6.87057 6.97141 6.85214 7.06503 6.85214C7.15865 6.85214 7.25135 6.87057 7.33784 6.9064C7.42434 6.94223 7.50293 6.99474 7.56912 7.06094L9.5 8.99181Z" fill="white" fill-opacity="0.73"/>
</svg>
