<svg width="336" height="284" viewBox="0 0 336 284" fill="none" xmlns="http://www.w3.org/2000/svg">
<g clip-path="url(#clip0_2_12)">
<path d="M179.029 84.5381C178.753 84.8155 178.5 85.1143 178.272 85.4315L143.287 84.1939L139.285 76.6798L127.171 81.2444L132.964 95.2392C133.431 96.3696 134.253 97.3175 135.305 97.9406C136.356 98.5636 137.582 98.8283 138.796 98.6948L178.386 94.3423C179.306 95.5354 180.566 96.4197 182.001 96.8776C183.435 97.3356 184.974 97.3454 186.414 96.9059C187.854 96.4663 189.126 95.5981 190.061 94.4169C190.996 93.2357 191.55 91.7974 191.649 90.2933C191.747 88.7893 191.386 87.2908 190.614 85.9972C189.841 84.7037 188.693 83.6763 187.323 83.0519C185.953 82.4275 184.426 82.2356 182.944 82.5017C181.462 82.7678 180.097 83.4793 179.029 84.5417V84.5381Z" fill="#A0616A"/>
<path d="M112.03 48.024C123.313 48.024 132.459 38.866 132.459 27.569C132.459 16.272 123.313 7.11392 112.03 7.11392C100.748 7.11392 91.6022 16.272 91.6022 27.569C91.6022 38.866 100.748 48.024 112.03 48.024Z" fill="#2F2E41"/>
<path d="M96.0851 16.5401C99.3862 13.2347 100.055 8.54537 97.5794 6.06628C95.1036 3.58718 90.4204 4.25709 87.1193 7.56255C83.8182 10.868 83.1492 15.5573 85.625 18.0364C88.1008 20.5155 92.784 19.8456 96.0851 16.5401Z" fill="#2F2E41"/>
<path d="M133.322 10.0444C134.697 6.82022 132.332 2.71794 128.039 0.881628C123.746 -0.954686 119.15 0.170339 117.775 3.39447C116.399 6.61861 118.765 10.7209 123.058 12.5572C127.351 14.3936 131.947 13.2685 133.322 10.0444Z" fill="#2F2E41"/>
<path d="M141.752 82.8002L126.076 89.8195C125.63 90.0192 125.146 90.1203 124.657 90.1159C124.169 90.1115 123.687 90.0017 123.245 89.7941C122.802 89.5864 122.41 89.2856 122.094 88.9124C121.778 88.5391 121.546 88.102 121.414 87.631L116.791 71.1247C115.786 68.8342 115.729 66.2384 116.632 63.9056C117.534 61.5728 119.323 59.6933 121.607 58.6788C123.891 57.6642 126.483 57.5973 128.816 58.4927C131.149 59.3881 133.033 61.1728 134.054 63.4559L143.232 77.8622C143.494 78.2747 143.665 78.7391 143.732 79.2237C143.799 79.7083 143.762 80.2017 143.621 80.6703C143.481 81.139 143.241 81.5718 142.919 81.9393C142.596 82.3069 142.198 82.6005 141.752 82.8002H141.752Z" fill="#CCCCCC"/>
<path d="M69.3518 151.863C70.4317 151.612 71.4434 151.127 72.3157 150.442C73.1881 149.757 73.8998 148.889 74.4009 147.899C74.9019 146.908 75.18 145.82 75.2155 144.711C75.2511 143.601 75.0433 142.497 74.6068 141.477L102.561 78.2372L86.5699 74.2042L64.1199 137.635C62.4566 138.483 61.1617 139.912 60.4806 141.652C59.7995 143.392 59.7796 145.322 60.4245 147.076C61.0694 148.83 62.3343 150.286 63.9797 151.168C65.6251 152.05 67.5365 152.298 69.3518 151.863Z" fill="#A0616A"/>
<path d="M61.7315 266.491L69.8633 269.455L85.1534 239.46L73.1513 235.084L61.7315 266.491Z" fill="#A0616A"/>
<path d="M82.7965 282.734L57.2397 273.416L60.8349 263.529L76.5175 269.247C79.1363 270.201 81.2691 272.159 82.4467 274.688C83.6242 277.217 83.7501 280.111 82.7966 282.734L82.7965 282.734Z" fill="#2F2E41"/>
<path d="M80.9658 249.229C80.4669 249.229 79.9741 249.118 79.5231 248.905L70.1777 244.472C69.4116 244.112 68.8078 243.478 68.4854 242.694C68.1629 241.911 68.145 241.035 68.4353 240.239L94.8097 167.106C95.0281 166.501 95.4136 165.97 95.9215 165.575C96.4293 165.179 97.0386 164.937 97.6787 164.874C98.3188 164.812 98.9634 164.933 99.5377 165.223C100.112 165.513 100.592 165.959 100.923 166.512L114.873 189.792C115.183 190.311 115.35 190.903 115.357 191.507C115.363 192.112 115.209 192.708 114.91 193.233L83.9306 247.517C83.6304 248.038 83.1983 248.471 82.6777 248.772C82.1572 249.072 81.5667 249.23 80.9658 249.229Z" fill="#2F2E41"/>
<path d="M112.678 49.812C122.253 49.812 130.015 42.0397 130.015 32.4521C130.015 22.8644 122.253 15.0921 112.678 15.0921C103.103 15.0921 95.3411 22.8644 95.3411 32.4521C95.3411 42.0397 103.103 49.812 112.678 49.812Z" fill="#A0616A"/>
<path d="M137.206 111.381L106.508 102.928L90.1814 70.232C89.3971 68.6613 89.0267 66.9158 89.1056 65.1615C89.1844 63.4071 89.7098 61.702 90.6319 60.2082C91.5539 58.7143 92.842 57.4813 94.3739 56.6261C95.9058 55.771 97.6305 55.3221 99.3844 55.3221H123.807C126.343 55.3205 128.789 56.2573 130.676 57.9524C137.227 63.8292 150.992 80.7716 137.338 111.086L137.206 111.381Z" fill="#CCCCCC"/>
<path d="M98.7771 89.5472L83.2241 82.2575C82.7816 82.0501 82.3889 81.7496 82.0728 81.3765C81.7567 81.0035 81.5247 80.5665 81.3924 80.0956C81.2602 79.6246 81.2308 79.1306 81.3064 78.6472C81.382 78.1638 81.5608 77.7025 81.8305 77.2945L91.2826 63.0009C92.3561 60.7413 94.2804 59 96.6338 58.1584C98.9872 57.3168 101.578 57.4437 103.838 58.5111C106.098 59.5786 107.844 61.4996 108.692 63.8533C109.54 66.207 109.422 68.8013 108.364 71.068L103.476 87.4398C103.336 87.9085 103.097 88.3415 102.774 88.7092C102.452 89.077 102.054 89.3709 101.608 89.5709C101.163 89.7709 100.679 89.8723 100.19 89.8682C99.7017 89.8641 99.2197 89.7547 98.7772 89.5472H98.7771Z" fill="#CCCCCC"/>
<path d="M117.594 274.687H126.248L130.365 241.263L117.592 241.264L117.594 274.687Z" fill="#A0616A"/>
<path d="M142.938 282.732L115.74 282.734L115.739 272.212L132.429 272.211C135.216 272.211 137.889 273.319 139.86 275.292C141.831 277.266 142.938 279.942 142.938 282.732Z" fill="#2F2E41"/>
<path d="M120.862 261.951C120.084 261.952 119.329 261.684 118.725 261.193C118.121 260.702 117.704 260.017 117.546 259.255C115.058 247.519 102.139 187.406 92.0554 156.443C81.796 124.94 99.2683 110.591 102.875 108.034C103.259 107.763 103.564 107.394 103.759 106.965L106.38 101.193C106.651 100.597 107.088 100.092 107.639 99.7381C108.189 99.3839 108.829 99.1956 109.484 99.1955H109.505C129.149 99.313 135.752 105.513 137.68 108.174C137.964 108.57 138.159 109.024 138.251 109.503C138.343 109.982 138.329 110.476 138.212 110.949L125.783 162.295C125.706 162.613 125.688 162.943 125.731 163.268L138.097 256.496C138.157 256.944 138.126 257.4 138.008 257.836C137.89 258.272 137.686 258.681 137.409 259.037C137.131 259.394 136.786 259.692 136.392 259.913C135.998 260.135 135.565 260.275 135.116 260.327L121.261 261.928C121.128 261.943 120.995 261.951 120.862 261.951Z" fill="#2F2E41"/>
<path d="M94.4609 21.5327C98.4227 24.2669 103.125 25.722 107.937 25.7027C106.22 26.8944 104.266 27.6993 102.209 28.0621C108.607 29.4362 115.219 29.4734 121.631 28.1713C123.056 27.9425 124.432 27.4695 125.697 26.7731C126.327 26.4206 126.876 25.9392 127.309 25.3602C127.741 24.7812 128.047 24.1175 128.206 23.4124C128.632 20.975 126.736 18.7605 124.765 17.2681C121.746 15.0179 118.267 13.4676 114.577 12.7293C110.887 11.991 107.079 12.0832 103.43 12.9992C101.046 13.616 98.6589 14.6582 97.1109 16.5747C95.5629 18.4911 95.1044 21.4457 96.5792 23.4191L94.4609 21.5327Z" fill="#2F2E41"/>
<path d="M297.964 217.073V283.323L280.801 282.827H192.995V228.779L218.616 217.073H297.964Z" fill="#CCCCCC"/>
<path opacity="0.1" d="M297.964 217.073V217.279L291.803 221.408L280.801 228.779H192.995L218.616 217.073H297.964Z" fill="black"/>
<path opacity="0.1" d="M297.964 217.073V283.323L280.801 282.827L280.926 228.654L291.803 221.408L297.865 217.073H297.964Z" fill="black"/>
<path d="M274.831 224.171H221.352L225.332 221.929H276.572L274.831 224.171Z" fill="white"/>
<path d="M335.294 284H0.705882C0.518671 284 0.339137 283.926 0.206758 283.793C0.0743798 283.66 0 283.481 0 283.293C0 283.106 0.0743798 282.926 0.206758 282.793C0.339137 282.661 0.518671 282.586 0.705882 282.586H335.294C335.481 282.586 335.661 282.661 335.793 282.793C335.926 282.926 336 283.106 336 283.293C336 283.481 335.926 283.66 335.793 283.793C335.661 283.926 335.481 284 335.294 284Z" fill="#E6E6E6"/>
<path d="M246.395 96.5724H188.512C186.828 96.5705 185.213 95.8997 184.022 94.7071C182.831 93.5146 182.161 91.8977 182.16 90.2112V27.305C182.161 25.6185 182.831 24.0016 184.022 22.809C185.213 21.6165 186.828 20.9457 188.512 20.9437H246.395C248.079 20.9457 249.694 21.6165 250.885 22.809C252.076 24.0016 252.746 25.6185 252.748 27.305V90.2112C252.746 91.8977 252.076 93.5146 250.885 94.7071C249.694 95.8997 248.079 96.5705 246.395 96.5724ZM188.512 22.3574C187.202 22.3588 185.947 22.8806 185.02 23.8081C184.094 24.7357 183.573 25.9933 183.571 27.305V90.2112C183.573 91.5229 184.094 92.7805 185.02 93.7081C185.947 94.6356 187.202 95.1573 188.512 95.1588H246.395C247.705 95.1573 248.961 94.6356 249.887 93.7081C250.813 92.7805 251.335 91.5229 251.336 90.2112V27.305C251.335 25.9933 250.813 24.7357 249.887 23.8081C248.961 22.8806 247.705 22.3588 246.395 22.3574H188.512Z" fill="#3F3D56"/>
<path d="M200.17 47.0957H194.523C193.681 47.0948 192.873 46.7594 192.278 46.1631C191.682 45.5668 191.348 44.7584 191.347 43.9151V38.2606C191.348 37.4173 191.682 36.6088 192.278 36.0126C192.873 35.4163 193.681 35.0809 194.523 35.08H200.17C201.012 35.0809 201.82 35.4163 202.415 36.0126C203.011 36.6088 203.346 37.4173 203.347 38.2606V43.9151C203.346 44.7584 203.011 45.5668 202.415 46.1631C201.82 46.7594 201.012 47.0948 200.17 47.0957Z" fill="#6C63FF"/>
<path d="M200.17 64.766H194.523C193.681 64.765 192.873 64.4296 192.278 63.8334C191.682 63.2371 191.348 62.4286 191.347 61.5853V55.9309C191.348 55.0876 191.682 54.2791 192.278 53.6828C192.873 53.0865 193.681 52.7511 194.523 52.7502H200.17C201.012 52.7511 201.82 53.0865 202.415 53.6828C203.011 54.2791 203.346 55.0876 203.347 55.9309V61.5853C203.346 62.4286 203.011 63.2371 202.415 63.8334C201.82 64.4296 201.012 64.765 200.17 64.766Z" fill="#CCCCCC"/>
<path d="M241.443 43.6585H215.079C214.517 43.6579 213.979 43.4343 213.582 43.0367C213.185 42.6392 212.962 42.1002 212.961 41.5381V40.6376C212.962 40.0754 213.185 39.5365 213.582 39.1389C213.979 38.7414 214.517 38.5178 215.079 38.5172H241.443C242.004 38.5178 242.543 38.7414 242.94 39.1389C243.337 39.5365 243.56 40.0754 243.561 40.6376V41.5381C243.56 42.1002 243.337 42.6392 242.94 43.0367C242.543 43.4343 242.004 43.6579 241.443 43.6585Z" fill="#6C63FF"/>
<path d="M241.443 61.3287H215.079C214.517 61.3281 213.979 61.1045 213.582 60.707C213.185 60.3095 212.962 59.7705 212.961 59.2083V58.3079C212.962 57.7457 213.185 57.2067 213.582 56.8092C213.979 56.4117 214.517 56.1881 215.079 56.1875H241.443C242.004 56.1881 242.543 56.4117 242.94 56.8092C243.337 57.2067 243.56 57.7457 243.561 58.3079V59.2083C243.56 59.7705 243.337 60.3095 242.94 60.707C242.543 61.1045 242.004 61.3281 241.443 61.3287Z" fill="#CCCCCC"/>
<path d="M200.17 82.4362H194.523C193.681 82.4353 192.873 82.0999 192.278 81.5036C191.682 80.9073 191.348 80.0989 191.347 79.2556V73.6011C191.348 72.7578 191.682 71.9494 192.278 71.3531C192.873 70.7568 193.681 70.4214 194.523 70.4205H200.17C201.012 70.4214 201.82 70.7568 202.415 71.3531C203.011 71.9494 203.346 72.7578 203.347 73.6011V79.2556C203.346 80.0989 203.011 80.9073 202.415 81.5036C201.82 82.0999 201.012 82.4353 200.17 82.4362Z" fill="#CCCCCC"/>
<path d="M241.443 78.999H215.079C214.517 78.9984 213.979 78.7748 213.582 78.3773C213.185 77.9797 212.962 77.4408 212.961 76.8786V75.9781C212.962 75.416 213.185 74.877 213.582 74.4794C213.979 74.0819 214.517 73.8583 215.079 73.8577H241.443C242.004 73.8583 242.543 74.0819 242.94 74.4794C243.337 74.877 243.56 75.416 243.561 75.9781V76.8786C243.56 77.4408 243.337 77.9797 242.94 78.3773C242.543 78.7748 242.004 78.9984 241.443 78.999Z" fill="#CCCCCC"/>
</g>
<defs>
<clipPath id="clip0_2_12">
<rect width="336" height="284" fill="white"/>
</clipPath>
</defs>
</svg>
