<svg width="20" height="20" viewBox="0 0 20 20" fill="none" xmlns="http://www.w3.org/2000/svg">
<g clip-path="url(#clip0_17_107)">
<path d="M9.99998 12.5C10.6944 12.5 11.2847 12.257 11.7708 11.7708C12.2569 11.2847 12.5 10.6945 12.5 10C12.5 9.30557 12.2569 8.71529 11.7708 8.22918C11.2847 7.74307 10.6944 7.50001 9.99998 7.50001C9.30554 7.50001 8.71526 7.74307 8.22915 8.22918C7.74304 8.71529 7.49998 9.30557 7.49998 10C7.49998 10.6945 7.74304 11.2847 8.22915 11.7708C8.71526 12.257 9.30554 12.5 9.99998 12.5ZM9.99998 14.1667C8.8472 14.1667 7.8647 13.7603 7.05248 12.9475C6.2397 12.1353 5.83331 11.1528 5.83331 10C5.83331 8.84723 6.2397 7.86445 7.05248 7.05168C7.8647 6.23945 8.8472 5.83334 9.99998 5.83334C11.1528 5.83334 12.1355 6.23945 12.9483 7.05168C13.7605 7.86445 14.1666 8.84723 14.1666 10C14.1666 11.1528 13.7605 12.1353 12.9483 12.9475C12.1355 13.7603 11.1528 14.1667 9.99998 14.1667ZM1.66665 10.8333C1.43054 10.8333 1.23276 10.7533 1.07331 10.5933C0.913313 10.4339 0.833313 10.2361 0.833313 10C0.833313 9.7639 0.913313 9.56584 1.07331 9.40584C1.23276 9.2464 1.43054 9.16668 1.66665 9.16668H3.33331C3.56942 9.16668 3.76748 9.2464 3.92748 9.40584C4.08692 9.56584 4.16665 9.7639 4.16665 10C4.16665 10.2361 4.08692 10.4339 3.92748 10.5933C3.76748 10.7533 3.56942 10.8333 3.33331 10.8333H1.66665ZM16.6666 10.8333C16.4305 10.8333 16.2328 10.7533 16.0733 10.5933C15.9133 10.4339 15.8333 10.2361 15.8333 10C15.8333 9.7639 15.9133 9.56584 16.0733 9.40584C16.2328 9.2464 16.4305 9.16668 16.6666 9.16668H18.3333C18.5694 9.16668 18.7672 9.2464 18.9266 9.40584C19.0866 9.56584 19.1666 9.7639 19.1666 10C19.1666 10.2361 19.0866 10.4339 18.9266 10.5933C18.7672 10.7533 18.5694 10.8333 18.3333 10.8333H16.6666ZM9.99998 4.16668C9.76387 4.16668 9.56609 4.08668 9.40665 3.92668C9.24665 3.76723 9.16665 3.56945 9.16665 3.33334V1.66668C9.16665 1.43057 9.24665 1.23251 9.40665 1.07251C9.56609 0.913066 9.76387 0.833344 9.99998 0.833344C10.2361 0.833344 10.4341 0.913066 10.5941 1.07251C10.7536 1.23251 10.8333 1.43057 10.8333 1.66668V3.33334C10.8333 3.56945 10.7536 3.76723 10.5941 3.92668C10.4341 4.08668 10.2361 4.16668 9.99998 4.16668ZM9.99998 19.1667C9.76387 19.1667 9.56609 19.0867 9.40665 18.9267C9.24665 18.7672 9.16665 18.5695 9.16665 18.3333V16.6667C9.16665 16.4306 9.24665 16.2328 9.40665 16.0733C9.56609 15.9133 9.76387 15.8333 9.99998 15.8333C10.2361 15.8333 10.4341 15.9133 10.5941 16.0733C10.7536 16.2328 10.8333 16.4306 10.8333 16.6667V18.3333C10.8333 18.5695 10.7536 18.7672 10.5941 18.9267C10.4341 19.0867 10.2361 19.1667 9.99998 19.1667ZM4.70831 5.87501L3.81248 5.00001C3.64581 4.84723 3.56581 4.65279 3.57248 4.41668C3.5797 4.18057 3.6597 3.97918 3.81248 3.81251C3.97915 3.64584 4.18054 3.56251 4.41665 3.56251C4.65276 3.56251 4.8472 3.64584 4.99998 3.81251L5.87498 4.70834C6.02776 4.87501 6.10415 5.06945 6.10415 5.29168C6.10415 5.5139 6.02776 5.70834 5.87498 5.87501C5.7222 6.04168 5.53137 6.1214 5.30248 6.11418C5.07304 6.10751 4.87498 6.02779 4.70831 5.87501ZM15 16.1875L14.125 15.2917C13.9722 15.125 13.8958 14.9272 13.8958 14.6983C13.8958 14.4689 13.9722 14.2778 14.125 14.125C14.2778 13.9583 14.4689 13.8786 14.6983 13.8858C14.9272 13.8925 15.125 13.9722 15.2916 14.125L16.1875 15C16.3541 15.1528 16.4341 15.3472 16.4275 15.5833C16.4203 15.8195 16.3403 16.0208 16.1875 16.1875C16.0208 16.3542 15.8194 16.4375 15.5833 16.4375C15.3472 16.4375 15.1528 16.3542 15 16.1875ZM14.125 5.87501C13.9583 5.72223 13.8786 5.53112 13.8858 5.30168C13.8925 5.07279 13.9722 4.87501 14.125 4.70834L15 3.81251C15.1528 3.64584 15.3472 3.56584 15.5833 3.57251C15.8194 3.57973 16.0208 3.65973 16.1875 3.81251C16.3541 3.97918 16.4375 4.18057 16.4375 4.41668C16.4375 4.65279 16.3541 4.84723 16.1875 5.00001L15.2916 5.87501C15.125 6.02779 14.9305 6.10418 14.7083 6.10418C14.4861 6.10418 14.2916 6.02779 14.125 5.87501ZM3.81248 16.1875C3.64581 16.0208 3.56248 15.8195 3.56248 15.5833C3.56248 15.3472 3.64581 15.1528 3.81248 15L4.70831 14.125C4.87498 13.9722 5.07304 13.8958 5.30248 13.8958C5.53137 13.8958 5.7222 13.9722 5.87498 14.125C6.04165 14.2778 6.12165 14.4689 6.11498 14.6983C6.10776 14.9272 6.02776 15.125 5.87498 15.2917L4.99998 16.1875C4.8472 16.3542 4.65276 16.4339 4.41665 16.4267C4.18054 16.42 3.97915 16.3403 3.81248 16.1875Z" fill="white" fill-opacity="0.4"/>
</g>
<defs>
<clipPath id="clip0_17_107">
<rect width="20" height="20" fill="white"/>
</clipPath>
</defs>
</svg>
