<svg width="209" height="32" viewBox="0 0 209 32" fill="none" xmlns="http://www.w3.org/2000/svg">
<path d="M5 26C4.45 26 3.979 25.8043 3.587 25.413C3.19567 25.021 3 24.55 3 24V19.45L5.75 16.325L7.175 17.75L5.175 20H18.825L16.875 17.8L18.3 16.375L21 19.45V24C21 24.55 20.8043 25.021 20.413 25.413C20.021 25.8043 19.55 26 19 26H5ZM10.6 18.4L7.125 14.875C6.74167 14.4917 6.55 14.0167 6.55 13.45C6.55 12.8833 6.74167 12.4083 7.125 12.025L12.025 7.12499C12.4083 6.74165 12.8833 6.54999 13.45 6.54999C14.0167 6.54999 14.4917 6.74165 14.875 7.12499L18.4 10.6C18.7833 10.9833 18.9793 11.454 18.988 12.012C18.996 12.5707 18.8083 13.0417 18.425 13.425L13.425 18.425C13.0417 18.8083 12.571 18.996 12.013 18.988C11.4543 18.9793 10.9833 18.7833 10.6 18.4ZM17 12L13.45 8.49999L8.5 13.45L12.05 16.95L17 12Z" fill="white"/>
<path d="M36.325 25.35C34.2417 25.35 32.5833 24.75 31.35 23.55C30.1167 22.3333 29.5 20.5667 29.5 18.25V14.25C29.5 11.9333 30.1167 10.175 31.35 8.975C32.5833 7.75833 34.2417 7.15 36.325 7.15C38.3917 7.15 39.975 7.725 41.075 8.875C42.1917 10.025 42.75 11.6 42.75 13.6V13.725H40.675V13.525C40.675 12.2083 40.3167 11.1333 39.6 10.3C38.9 9.45 37.8083 9.025 36.325 9.025C34.8417 9.025 33.6833 9.48333 32.85 10.4C32.0167 11.3 31.6 12.5667 31.6 14.2V18.3C31.6 19.9333 32.0167 21.2083 32.85 22.125C33.6833 23.025 34.8417 23.475 36.325 23.475C37.8083 23.475 38.9 23.0583 39.6 22.225C40.3167 21.375 40.675 20.2917 40.675 18.975V18.575H42.75V18.9C42.75 20.9 42.1917 22.475 41.075 23.625C39.975 24.775 38.3917 25.35 36.325 25.35ZM52.39 25.35C50.3067 25.35 48.64 24.75 47.39 23.55C46.1567 22.3333 45.54 20.5667 45.54 18.25V14.25C45.54 11.9333 46.1567 10.175 47.39 8.975C48.64 7.75833 50.3067 7.15 52.39 7.15C54.49 7.15 56.1567 7.75833 57.39 8.975C58.64 10.175 59.265 11.9333 59.265 14.25V18.25C59.265 20.5667 58.64 22.3333 57.39 23.55C56.1567 24.75 54.49 25.35 52.39 25.35ZM52.39 23.475C53.9067 23.475 55.0817 23.025 55.915 22.125C56.7484 21.2083 57.165 19.9417 57.165 18.325V14.175C57.165 12.5583 56.7484 11.3 55.915 10.4C55.0817 9.48333 53.9067 9.025 52.39 9.025C50.89 9.025 49.7234 9.48333 48.89 10.4C48.0567 11.3 47.64 12.5583 47.64 14.175V18.325C47.64 19.9417 48.0567 21.2083 48.89 22.125C49.7234 23.025 50.89 23.475 52.39 23.475ZM62.7637 25V7.5H66.7637L71.4137 23.675H71.7387L76.3887 7.5H80.3887V25H78.3637V8.875H78.0137L73.3887 25H69.7637L65.1387 8.875H64.7887V25H62.7637ZM84.3945 25V7.5H91.0945C92.1445 7.5 93.0779 7.70833 93.8945 8.125C94.7279 8.525 95.3862 9.1 95.8695 9.85C96.3529 10.6 96.5945 11.5083 96.5945 12.575V12.9C96.5945 13.95 96.3445 14.8583 95.8445 15.625C95.3612 16.375 94.7029 16.95 93.8695 17.35C93.0362 17.75 92.1112 17.95 91.0945 17.95H86.4945V25H84.3945ZM86.4945 16.05H90.8695C91.9862 16.05 92.8695 15.775 93.5195 15.225C94.1695 14.6583 94.4945 13.8667 94.4945 12.85V12.6C94.4945 11.5833 94.1695 10.8 93.5195 10.25C92.8862 9.68333 92.0029 9.4 90.8695 9.4H86.4945V16.05ZM96.6182 25L102.018 7.5H105.718L111.118 25H108.943L107.593 20.575H100.143L98.7932 25H96.6182ZM100.668 18.675H107.043L104.043 8.775H103.693L100.668 18.675ZM113.74 25V7.5H117.815L123.915 23.675H124.24V7.5H126.315V25H122.24L116.165 8.8H115.815V25H113.74ZM134.917 25V18.325L128.692 7.5H131.092L135.792 15.9H136.142L140.842 7.5H143.242L137.017 18.325V25H134.917ZM151.704 25V7.5H158.404C159.454 7.5 160.387 7.70833 161.204 8.125C162.037 8.525 162.696 9.1 163.179 9.85C163.662 10.6 163.904 11.5083 163.904 12.575V12.9C163.904 13.95 163.654 14.8583 163.154 15.625C162.671 16.375 162.012 16.95 161.179 17.35C160.346 17.75 159.421 17.95 158.404 17.95H153.804V25H151.704ZM153.804 16.05H158.179C159.296 16.05 160.179 15.775 160.829 15.225C161.479 14.6583 161.804 13.8667 161.804 12.85V12.6C161.804 11.5833 161.479 10.8 160.829 10.25C160.196 9.68333 159.312 9.4 158.179 9.4H153.804V16.05ZM173.069 25.35C170.985 25.35 169.319 24.75 168.069 23.55C166.835 22.3333 166.219 20.5667 166.219 18.25V14.25C166.219 11.9333 166.835 10.175 168.069 8.975C169.319 7.75833 170.985 7.15 173.069 7.15C175.169 7.15 176.835 7.75833 178.069 8.975C179.319 10.175 179.944 11.9333 179.944 14.25V18.25C179.944 20.5667 179.319 22.3333 178.069 23.55C176.835 24.75 175.169 25.35 173.069 25.35ZM173.069 23.475C174.585 23.475 175.76 23.025 176.594 22.125C177.427 21.2083 177.844 19.9417 177.844 18.325V14.175C177.844 12.5583 177.427 11.3 176.594 10.4C175.76 9.48333 174.585 9.025 173.069 9.025C171.569 9.025 170.402 9.48333 169.569 10.4C168.735 11.3 168.319 12.5583 168.319 14.175V18.325C168.319 19.9417 168.735 21.2083 169.569 22.125C170.402 23.025 171.569 23.475 173.069 23.475ZM183.442 25V7.5H185.542V23.1H194.392V25H183.442ZM197.09 25V7.5H199.19V23.1H208.04V25H197.09Z" fill="white"/>
</svg>
