<svg width="22" height="22" viewBox="0 0 22 22" fill="none" xmlns="http://www.w3.org/2000/svg">
<path d="M16.9583 1.83334H5.04165C3.29998 1.83334 1.83331 3.3 1.83331 5.04167V16.9583C1.83331 18.7 3.29998 20.1667 5.04165 20.1667H14.6666L20.1666 14.6667V5.04167C20.1666 3.3 18.7 1.83334 16.9583 1.83334ZM11 12.2833L9.07498 14.2083L7.79165 12.925L9.71665 11L7.79165 9.075L9.07498 7.79167L11 9.71667L12.925 7.79167L14.2083 9.075L12.2833 11L14.2083 12.925L12.925 14.2083L11 12.2833ZM13.75 18.3333V16.9583C13.75 15.2167 15.2166 13.75 16.9583 13.75H18.3333L13.75 18.3333Z" fill="white" fill-opacity="0.73"/>
</svg>
