<svg width="20" height="20" viewBox="0 0 20 20" fill="none" xmlns="http://www.w3.org/2000/svg">
<path d="M8.1225 18.1117C8.73875 18.2588 9.36959 18.3329 10.0029 18.3329C10.6349 18.3323 11.2646 18.2576 11.8792 18.1104C12.0407 18.0715 12.1864 17.9838 12.2963 17.8591C12.4062 17.7344 12.475 17.5789 12.4933 17.4138L12.6342 16.1342C12.658 15.9053 12.7627 15.6925 12.9294 15.534C13.0962 15.3755 13.314 15.2817 13.5438 15.2696C13.6967 15.2629 13.8488 15.2917 13.9888 15.3529L15.1583 15.8658C15.26 15.9116 15.3701 15.9356 15.4816 15.9363C15.5931 15.937 15.7036 15.9144 15.8058 15.87C15.9088 15.8263 16.0008 15.7613 16.0767 15.6792C16.9367 14.7522 17.5787 13.6448 17.9558 12.4379C18.0052 12.2778 18.0037 12.1063 17.9514 11.9471C17.8992 11.7879 17.7988 11.6489 17.6642 11.5492L16.625 10.7825C16.5012 10.6926 16.4005 10.5747 16.331 10.4384C16.2616 10.3021 16.2254 10.1513 16.2254 9.99833C16.2254 9.84536 16.2616 9.69456 16.331 9.55827C16.4005 9.42198 16.5012 9.30406 16.625 9.21417L17.6608 8.44917C17.7959 8.34928 17.8965 8.20987 17.9487 8.05026C18.001 7.89065 18.0023 7.71873 17.9525 7.55833C17.5752 6.35128 16.9324 5.24404 16.0713 4.31792C15.9572 4.19596 15.808 4.11243 15.6444 4.07885C15.4808 4.04526 15.3108 4.06328 15.1579 4.13042L13.9888 4.64542C13.8679 4.7 13.7363 4.72875 13.6029 4.72875C13.3629 4.72828 13.1315 4.63923 12.9532 4.47868C12.7748 4.31813 12.6619 4.09737 12.6363 3.85875L12.4946 2.58375C12.4765 2.41641 12.4065 2.25892 12.2944 2.13333C12.1823 2.00774 12.0338 1.92033 11.8696 1.88333C11.2581 1.74682 10.634 1.67434 10.0075 1.66708C9.3767 1.67436 8.74835 1.74697 8.1325 1.88375C7.96849 1.92053 7.82007 2.00766 7.70801 2.13295C7.59594 2.25823 7.52584 2.41541 7.5075 2.5825L7.36584 3.85833C7.33911 4.09734 7.22517 4.31809 7.04584 4.47833C6.86282 4.63381 6.63214 4.72202 6.39209 4.72833C6.25969 4.72825 6.12874 4.70072 6.0075 4.6475L4.84084 4.1325C4.68742 4.06476 4.5167 4.0465 4.35242 4.08025C4.18814 4.114 4.03846 4.19809 3.92417 4.32083C3.0642 5.24717 2.42215 6.35401 2.04501 7.56042C1.99518 7.72075 1.99649 7.89261 2.04876 8.05217C2.10102 8.21172 2.20165 8.35105 2.33667 8.45083L3.37334 9.21583C3.55853 9.3527 3.6894 9.55061 3.74284 9.7746C3.79629 9.99859 3.76887 10.2343 3.66542 10.44C3.59663 10.5764 3.49672 10.6947 3.37376 10.7854L2.33626 11.5517C2.20135 11.6514 2.10079 11.7905 2.04853 11.9499C1.99627 12.1093 1.99489 12.281 2.04459 12.4413C2.42107 13.6488 3.06317 14.7568 3.92376 15.6838C4.03744 15.8064 4.18658 15.8906 4.35037 15.9245C4.51416 15.9584 4.68445 15.9404 4.83751 15.8729L6.01167 15.3575C6.13292 15.3042 6.26375 15.2767 6.39626 15.2767H6.39959C6.63869 15.277 6.86932 15.3652 7.04758 15.5246C7.22583 15.6839 7.33926 15.9033 7.36626 16.1408L7.50709 17.4146C7.52543 17.58 7.59438 17.7357 7.70453 17.8605C7.81467 17.9852 7.96064 18.073 8.1225 18.1117ZM10 12.6042C9.30934 12.6042 8.64696 12.3298 8.15858 11.8414C7.6702 11.353 7.39584 10.6907 7.39584 10C7.39584 9.30933 7.6702 8.64695 8.15858 8.15858C8.64696 7.6702 9.30934 7.39583 10 7.39583C10.6907 7.39583 11.3531 7.6702 11.8414 8.15858C12.3298 8.64695 12.6042 9.30933 12.6042 10C12.6042 10.6907 12.3298 11.353 11.8414 11.8414C11.3531 12.3298 10.6907 12.6042 10 12.6042Z" fill="white" fill-opacity="0.4"/>
</svg>
