<svg width="36" height="36" viewBox="0 0 36 36" fill="none" xmlns="http://www.w3.org/2000/svg">
<path d="M18 9.75C20.7581 9.74083 23.4628 10.5102 25.8032 11.9696C28.1435 13.429 30.0246 15.5192 31.23 18C28.755 23.055 23.7 26.25 18 26.25C12.3 26.25 7.245 23.055 4.77 18C5.97543 15.5192 7.85645 13.429 10.1968 11.9696C12.5372 10.5102 15.2419 9.74083 18 9.75ZM18 6.75C10.5 6.75 4.095 11.415 1.5 18C4.095 24.585 10.5 29.25 18 29.25C25.5 29.25 31.905 24.585 34.5 18C31.905 11.415 25.5 6.75 18 6.75ZM18 14.25C18.9946 14.25 19.9484 14.6451 20.6516 15.3483C21.3549 16.0516 21.75 17.0054 21.75 18C21.75 18.9946 21.3549 19.9484 20.6516 20.6517C19.9484 21.3549 18.9946 21.75 18 21.75C17.0054 21.75 16.0516 21.3549 15.3483 20.6517C14.6451 19.9484 14.25 18.9946 14.25 18C14.25 17.0054 14.6451 16.0516 15.3483 15.3483C16.0516 14.6451 17.0054 14.25 18 14.25ZM18 11.25C14.28 11.25 11.25 14.28 11.25 18C11.25 21.72 14.28 24.75 18 24.75C21.72 24.75 24.75 21.72 24.75 18C24.75 14.28 21.72 11.25 18 11.25Z" fill="white" fill-opacity="0.24"/>
</svg>
