<svg width="29" height="30" viewBox="0 0 29 30" fill="none" xmlns="http://www.w3.org/2000/svg">
<g clip-path="url(#clip0_7_6)">
<path d="M14.7594 19.4306C17.359 19.4306 19.4664 17.3232 19.4664 14.7236C19.4664 12.124 17.359 10.0166 14.7594 10.0166C12.1598 10.0166 10.0524 12.124 10.0524 14.7236C10.0524 17.3232 12.1598 19.4306 14.7594 19.4306Z" fill="#A0616A"/>
<path d="M10.8635 20.4846L11.8447 17.9771L16.9142 17.2139L17.4589 22.7646L12.3348 22.8736L10.8635 20.4846Z" fill="#A0616A"/>
<path d="M19.512 15.592C19.4509 15.8368 19.3274 16.4195 19.1346 16.4224C18.977 16.4247 18.8262 13.8966 18.9836 13.4785C19.1644 12.9981 18.6893 12.3904 18.3315 12.0784C17.688 11.5176 16.2596 12.7219 14.8072 12.1763C14.7687 12.1619 14.7764 12.1635 14.3178 11.9805C12.9065 11.4175 12.8323 11.4012 12.7514 11.3932C12.0673 11.3255 11.2324 11.8853 10.8914 12.5679C10.537 13.2775 10.8331 13.8861 10.4999 15.6027C10.461 15.8027 10.4 16.0879 10.3041 16.0921C10.1286 16.0998 9.95734 15.1628 9.91248 14.9174C9.72453 13.8892 9.54332 12.8979 9.91248 11.7848C9.95276 11.6633 10.2009 11.2127 10.6956 10.3163C11.4083 9.02505 11.7668 8.37698 11.8704 8.26054C12.6133 7.42508 13.9656 6.66296 15.1009 6.9879C15.6748 7.15214 15.5719 7.41619 16.2757 7.67317C17.5299 8.13109 18.6199 7.57106 18.8209 7.96685C18.9274 8.1765 18.6295 8.34935 18.6251 8.75001C18.6177 9.43747 19.4872 9.63613 19.9957 10.3163C20.269 10.682 20.7369 10.6859 19.512 15.592L19.512 15.592V15.592Z" fill="#2F2E41"/>
<path d="M25.3434 24.6273C25.1537 24.8404 24.9569 25.0492 24.753 25.2531C22.0144 27.9917 18.373 29.5 14.5 29.5C11.1525 29.5 7.97828 28.3733 5.41025 26.2991C5.40861 26.2981 5.40752 26.2969 5.4059 26.2953C5.0652 26.0206 4.7354 25.7284 4.41705 25.4199C4.42304 25.3719 4.42959 25.3245 4.43667 25.2776C4.48137 24.9614 4.53099 24.6599 4.58658 24.3825C5.04175 22.1083 11.0309 19.7207 11.1868 19.6585C11.189 19.658 11.1901 19.6575 11.1901 19.6575C11.1901 19.6575 11.9609 22.4986 15.2637 22.4621C17.5134 22.4375 17.0773 19.6575 17.0773 19.6575C17.0773 19.6575 17.1046 19.6629 17.1558 19.6738C17.8056 19.8117 22.3169 20.8027 24.0967 22.1552C24.6391 22.5673 25.0283 23.4449 25.308 24.4915C25.3199 24.5362 25.3314 24.582 25.3434 24.6273Z" fill="#6C63FF"/>
<path d="M24.753 4.74698C22.0144 2.00838 18.373 0.5 14.5 0.5C10.627 0.5 6.98563 2.00838 4.24697 4.74698C1.50834 7.48564 0 11.127 0 15C0 18.5351 1.25649 21.8772 3.55904 24.5161C3.77873 24.7684 4.00822 25.0143 4.24697 25.2531C4.30312 25.3092 4.35981 25.3653 4.41705 25.4199C4.7354 25.7284 5.0652 26.0206 5.40589 26.2953C5.40752 26.2969 5.40861 26.298 5.41024 26.2991C7.97828 28.3733 11.1525 29.5 14.5 29.5C18.373 29.5 22.0144 27.9917 24.753 25.2531C24.9569 25.0492 25.1537 24.8404 25.3434 24.6273C27.7075 21.9715 29 18.5852 29 15C29 11.127 27.4917 7.48564 24.753 4.74698ZM25.308 24.4915C24.879 24.9794 24.4178 25.4384 23.9272 25.8641C22.9967 26.6736 21.961 27.3648 20.844 27.9154C20.4521 28.1089 20.0503 28.2849 19.6393 28.4425C18.0427 29.0552 16.3098 29.391 14.5 29.391C12.7535 29.391 11.0789 29.0781 9.52912 28.5058C8.89296 28.2713 8.27809 27.9928 7.68773 27.6739C7.60105 27.627 7.51493 27.5796 7.42934 27.5311C6.97908 27.276 6.54354 26.9974 6.12544 26.6965C5.52636 26.267 4.96162 25.7922 4.43667 25.2776C4.14231 24.9892 3.86104 24.6888 3.5923 24.3765C1.4222 21.8559 0.109023 18.5787 0.109023 15C0.109023 7.06483 6.56479 0.609023 14.5 0.609023C22.4352 0.609023 28.891 7.06483 28.891 15C28.891 18.6337 27.5375 21.9567 25.308 24.4915Z" fill="#3F3D56"/>
</g>
<defs>
<clipPath id="clip0_7_6">
<rect width="29" height="29" fill="white" transform="translate(0 0.5)"/>
</clipPath>
</defs>
</svg>
