<svg width="21" height="22" viewBox="0 0 21 22" fill="none" xmlns="http://www.w3.org/2000/svg">
<g clip-path="url(#clip0_17_191)">
<path d="M16.4062 21.5C17.6246 21.5 18.793 21.016 19.6545 20.1545C20.516 19.293 21 18.1246 21 16.9062C21 15.6879 20.516 14.5195 19.6545 13.658C18.793 12.7965 17.6246 12.3125 16.4062 12.3125C15.1879 12.3125 14.0195 12.7965 13.158 13.658C12.2965 14.5195 11.8125 15.6879 11.8125 16.9062C11.8125 18.1246 12.2965 19.293 13.158 20.1545C14.0195 21.016 15.1879 21.5 16.4062 21.5ZM14.4375 16.25H18.375C18.549 16.25 18.716 16.3191 18.839 16.4422C18.9621 16.5653 19.0312 16.7322 19.0312 16.9062C19.0312 17.0803 18.9621 17.2472 18.839 17.3703C18.716 17.4934 18.549 17.5625 18.375 17.5625H14.4375C14.2635 17.5625 14.0965 17.4934 13.9735 17.3703C13.8504 17.2472 13.7812 17.0803 13.7812 16.9062C13.7812 16.7322 13.8504 16.5653 13.9735 16.4422C14.0965 16.3191 14.2635 16.25 14.4375 16.25ZM14.4375 7.0625C14.4375 8.10679 14.0227 9.10831 13.2842 9.84673C12.5458 10.5852 11.5443 11 10.5 11C9.45571 11 8.45419 10.5852 7.71577 9.84673C6.97734 9.10831 6.5625 8.10679 6.5625 7.0625C6.5625 6.01821 6.97734 5.01669 7.71577 4.27827C8.45419 3.53984 9.45571 3.125 10.5 3.125C11.5443 3.125 12.5458 3.53984 13.2842 4.27827C14.0227 5.01669 14.4375 6.01821 14.4375 7.0625Z" fill="white" fill-opacity="0.73"/>
<path d="M2.625 17.5625C2.625 18.875 3.9375 18.875 3.9375 18.875H10.836C10.6129 18.2426 10.4992 17.5768 10.5 16.9062C10.4991 16.0621 10.6796 15.2277 11.0292 14.4593C11.3789 13.691 11.8895 13.0068 12.5265 12.4529C11.9136 12.3624 11.2402 12.3125 10.5 12.3125C3.9375 12.3125 2.625 16.25 2.625 17.5625Z" fill="white" fill-opacity="0.73"/>
</g>
<defs>
<clipPath id="clip0_17_191">
<rect width="21" height="21" fill="white" transform="translate(0 0.5)"/>
</clipPath>
</defs>
</svg>
