<svg width="21" height="22" viewBox="0 0 21 22" fill="none" xmlns="http://www.w3.org/2000/svg">
<g clip-path="url(#clip0_14_30)">
<path d="M13.4167 2.83334H4.08335C3.77393 2.83334 3.47719 2.95626 3.2584 3.17505C3.0396 3.39384 2.91669 3.69059 2.91669 4.00001V18C2.91669 18.3094 3.0396 18.6062 3.2584 18.825C3.47719 19.0438 3.77393 19.1667 4.08335 19.1667H13.4167C13.7261 19.1667 14.0229 19.0438 14.2416 18.825C14.4604 18.6062 14.5834 18.3094 14.5834 18V14.5H9.11752C8.96281 14.5 8.81444 14.4386 8.70504 14.3292C8.59565 14.2198 8.53419 14.0714 8.53419 13.9167C8.53419 13.762 8.59565 13.6136 8.70504 13.5042C8.81444 13.3948 8.96281 13.3333 9.11752 13.3333H14.5834V4.00001C14.5834 3.69059 14.4604 3.39384 14.2416 3.17505C14.0229 2.95626 13.7261 2.83334 13.4167 2.83334Z" fill="white" fill-opacity="0.4"/>
<path d="M16.4266 10.58C16.3151 10.4844 16.1715 10.4345 16.0247 10.4402C15.8779 10.4458 15.7386 10.5067 15.6347 10.6106C15.5308 10.7145 15.47 10.8537 15.4643 11.0005C15.4586 11.1474 15.5086 11.2909 15.6041 11.4025L17.5758 13.3333H14.5833V14.5H17.5758L15.6041 16.5183C15.5431 16.5706 15.4935 16.635 15.4585 16.7073C15.4235 16.7797 15.4038 16.8585 15.4007 16.9389C15.3976 17.0192 15.4111 17.0993 15.4404 17.1742C15.4698 17.249 15.5143 17.317 15.5711 17.3739C15.6279 17.4307 15.6959 17.4752 15.7708 17.5045C15.8456 17.5339 15.9258 17.5474 16.0061 17.5443C16.0864 17.5412 16.1653 17.5215 16.2376 17.4865C16.31 17.4515 16.3744 17.4019 16.4266 17.3408L19.8333 13.9575L16.4266 10.58Z" fill="white" fill-opacity="0.4"/>
</g>
<defs>
<clipPath id="clip0_14_30">
<rect width="21" height="21" fill="white" transform="translate(0 0.5)"/>
</clipPath>
</defs>
</svg>
